<svg width="33" height="36" viewBox="0 0 33 36" fill="none" xmlns="http://www.w3.org/2000/svg">
<path d="M4.15125 14.574C4.50861 15.3353 5.39424 16.8424 5.39424 16.8424L15.5712 0.0155029L5.6273 6.94515C5.03688 7.33359 4.55522 7.87739 4.2134 8.49889C3.2967 10.41 3.28116 12.6318 4.15125 14.574Z" fill="white"/>
<path d="M0.111583 20.1053C0.344643 23.3682 1.96053 26.3669 4.55526 28.3401L15.5402 36C15.5402 36 8.67265 26.0872 2.86169 16.2365C2.27127 15.1955 1.88284 14.0613 1.69639 12.8805C1.6187 12.3522 1.6187 11.8084 1.69639 11.2646C1.54102 11.5443 1.24581 12.1191 1.24581 12.1191C0.65539 13.3155 0.251419 14.6051 0.0649714 15.9258C-0.0282526 17.3086 -0.0282527 18.7225 0.111583 20.1053Z" fill="white"/>
<path d="M28.1409 21.4415C27.7835 20.6802 26.8979 19.1731 26.8979 19.1731L16.7209 36L26.6493 29.0704C27.2397 28.6819 27.7214 28.1381 28.0632 27.5166C28.9954 25.59 29.011 23.3682 28.1409 21.4415Z" fill="white"/>
<path d="M32.1806 15.8947C31.9476 12.6319 30.3317 9.63315 27.737 7.6599L16.7521 0C16.7521 0 23.6196 9.91282 29.4305 19.7635C30.021 20.8045 30.4094 21.9387 30.5958 23.1196C30.6735 23.6478 30.6735 24.1916 30.5958 24.7354C30.7512 24.4558 31.0464 23.8809 31.0464 23.8809C31.6368 22.6845 32.0408 21.3949 32.2273 20.0742C32.3205 18.6914 32.3205 17.2931 32.1806 15.8947Z" fill="white"/>
<path d="M4.21344 8.49889C4.55526 7.87739 5.03692 7.33359 5.62734 6.94516L15.5557 0.0155029L5.37874 16.8424C5.37874 16.8424 4.49311 15.3353 4.13575 14.574C3.26566 12.6318 3.29674 10.41 4.21344 8.49889ZM0.111583 20.1053C0.344643 23.3681 1.96053 26.3668 4.55526 28.3401L15.5402 36C15.5402 36 8.67265 26.0872 2.86169 16.2365C2.27127 15.1955 1.88284 14.0613 1.69639 12.8804C1.6187 12.3521 1.6187 11.8083 1.69639 11.2645C1.54102 11.5442 1.24581 12.1191 1.24581 12.1191C0.65539 13.3155 0.251419 14.6051 0.0649714 15.9257C-0.0282526 17.3086 -0.0282527 18.7225 0.111583 20.1053ZM28.1254 21.4415C27.768 20.6802 26.8824 19.173 26.8824 19.173L16.721 36L26.6494 29.0703C27.2398 28.6819 27.7214 28.1381 28.0632 27.5166C28.9799 25.6055 29.011 23.3837 28.1254 21.4415ZM32.1651 15.9102C31.932 12.6474 30.3162 9.64865 27.7214 7.67541L16.7521 0.0155029C16.7521 0.0155029 23.6196 9.92832 29.4305 19.779C30.021 20.82 30.4094 21.9542 30.5958 23.1351C30.6735 23.6633 30.6735 24.2071 30.5958 24.7509C30.7512 24.4713 31.0464 23.8964 31.0464 23.8964C31.6368 22.7 32.0408 21.4104 32.2273 20.0897C32.336 18.6914 32.336 17.293 32.1962 15.8947L32.1651 15.9102Z" fill="white"/>
</svg>
