<svg width="15" height="24" viewBox="0 0 15 24" fill="none" xmlns="http://www.w3.org/2000/svg">
<g clip-path="url(#clip0_1_312)">
<path d="M7.30691 0.130042V0.141865C7.31873 0.200978 7.31873 0.271914 7.31873 0.34285V8.86699C7.30691 8.91428 7.27144 8.9261 7.23597 8.94975C6.9877 9.06797 6.75125 9.17438 6.50297 9.28078C6.16011 9.43448 5.80543 9.59999 5.46258 9.75369L4.2212 10.3212C3.87834 10.4749 3.53548 10.6286 3.20445 10.7823C2.80248 10.9714 2.38868 11.1488 1.98671 11.3379C1.64386 11.4916 1.301 11.6571 0.946319 11.8108C0.662575 11.9409 0.378832 12.0591 0.10691 12.1892C0.0832651 12.201 0.0596197 12.2128 0.0359744 12.2128C0.0241518 12.2128 0.0241518 12.2128 0.0123291 12.201L0.331541 11.669C0.946319 10.6522 1.54927 9.64728 2.16405 8.63054C2.8143 7.54285 3.47637 6.45517 4.12662 5.36748C4.72957 4.36255 5.34435 3.35763 5.9473 2.3527C6.38474 1.6197 6.834 0.886692 7.27144 0.153687C7.28327 0.130042 7.29509 0.118219 7.29509 0.094574H7.30691C7.29509 0.106397 7.30691 0.118219 7.30691 0.130042Z" fill="#8A92B2"/>
<path d="M14.5655 12.201L14.5774 12.2128L12.8394 13.2414L7.37736 16.469C7.35371 16.4808 7.33007 16.4926 7.31824 16.5044C7.28278 16.5044 7.28278 16.469 7.28278 16.4571V16.3507V9.04432C7.28278 9.00885 7.28278 8.96156 7.2946 8.9261C7.30642 8.87881 7.34189 8.89063 7.37736 8.90245C7.53105 8.97339 7.69657 9.04432 7.85026 9.11526C8.31135 9.32807 8.77243 9.54087 9.23352 9.74186C9.63549 9.9192 10.0256 10.1084 10.4276 10.2857C10.8296 10.463 11.2315 10.6522 11.6335 10.8295C11.9764 10.9832 12.3311 11.1488 12.6739 11.3025C13.0168 11.4561 13.3714 11.6217 13.7143 11.7754C13.9862 11.8936 14.2581 12.0236 14.5301 12.1419C14.5301 12.1773 14.5419 12.1891 14.5655 12.201Z" fill="#454A75"/>
<path d="M7.30642 23.8463C7.30642 23.8581 7.2946 23.8699 7.2946 23.8818H7.28278C7.28278 23.8581 7.25913 23.8463 7.24731 23.8226C6.5143 22.7941 5.7813 21.7537 5.04829 20.7251C4.30347 19.6729 3.54682 18.6089 2.80199 17.5566C2.08081 16.5399 1.3478 15.5113 0.626619 14.4946C0.437457 14.2226 0.248294 13.9625 0.0591315 13.6906C0.0473088 13.667 0.0354861 13.6552 0.0118408 13.6197C0.0473088 13.6197 0.0709541 13.6433 0.0827768 13.6552C1.11135 14.2581 2.1281 14.8611 3.15667 15.464C4.33893 16.1616 5.50938 16.8591 6.69164 17.5566L7.2946 17.9113C7.31824 17.935 7.31824 17.9586 7.31824 17.9823V23.6808C7.31824 23.7399 7.31824 23.799 7.30642 23.8463Z" fill="#8A92B2"/>
<path d="M0 12.2246V12.2128C0.378325 12.0473 0.744828 11.8699 1.12315 11.7044C1.60788 11.4798 2.09261 11.267 2.57734 11.0423C2.94384 10.8768 3.32217 10.6995 3.68867 10.534C4.23251 10.2857 4.76453 10.0492 5.30837 9.80097C5.67488 9.63545 6.04138 9.46994 6.4197 9.2926C6.6798 9.17437 6.95172 9.05614 7.21182 8.93792C7.23547 8.92609 7.27094 8.91427 7.28276 8.89062C7.29458 8.89062 7.29458 8.90245 7.28276 8.91427V16.4217C7.28276 16.4571 7.27094 16.4926 7.29458 16.5162C7.27094 16.5517 7.24729 16.5162 7.23547 16.5044C7.12906 16.4453 7.02266 16.3862 6.91626 16.3153C4.63448 14.9675 2.34089 13.6079 0.0591133 12.2601C0.0472906 12.2483 0.0236453 12.2364 0 12.2246Z" fill="#62688F"/>
<path d="M14.5418 13.6197H14.5537C14.5537 13.6433 14.53 13.667 14.5182 13.6906C12.3428 16.7527 10.1675 19.8266 7.99209 22.8887C7.76746 23.2079 7.53101 23.5271 7.30638 23.8463C7.29456 23.8345 7.29456 23.8226 7.29456 23.8108V23.7399V18.0059V17.8995C7.79111 17.6039 8.27584 17.3202 8.77239 17.0246C10.6877 15.8896 12.6029 14.7665 14.5064 13.6315C14.5182 13.6433 14.53 13.6315 14.5418 13.6197Z" fill="#62688F"/>
<path d="M7.29458 8.91429V8.89065V8.81971V0.236458C7.29458 0.20099 7.28276 0.177344 7.3064 0.141876C9.7064 4.12611 12.1064 8.09853 14.4946 12.0828C14.5182 12.1182 14.5537 12.1655 14.5655 12.2128C14.4 12.1537 14.2463 12.0709 14.0926 12C13.9034 11.9172 13.7025 11.8227 13.5133 11.7399C13.3951 11.6808 13.265 11.6335 13.1468 11.5744C12.9458 11.4798 12.7448 11.397 12.5438 11.3025C12.4256 11.2552 12.3074 11.1961 12.1892 11.137L11.4089 10.7823C11.2788 10.7232 11.1488 10.664 11.0069 10.6049L10.4394 10.3567C10.3212 10.3094 10.203 10.2503 10.0847 10.1911L9.30443 9.83646C9.17438 9.77734 9.04433 9.71823 8.90246 9.65912L8.33497 9.41084C8.20493 9.35173 8.0867 9.29262 7.95665 9.2335C7.73202 9.1271 7.50739 9.02069 7.27094 8.92611C7.3064 8.91429 7.29458 8.91429 7.29458 8.91429Z" fill="#62688F"/>
</g>
<defs>
<clipPath id="clip0_1_312">
<rect width="15" height="24" fill="white"/>
</clipPath>
</defs>
</svg>
