<svg width="15" height="24" viewBox="0 0 15 24" fill="none" xmlns="http://www.w3.org/2000/svg">
<path fill-rule="evenodd" clip-rule="evenodd" d="M7.28867 23.8641C7.29163 23.8581 7.29458 23.8522 7.29458 23.8463C7.29459 23.8463 7.2946 23.8463 7.29461 23.8462C7.4069 23.6867 7.52215 23.5271 7.63739 23.3675C7.75267 23.2079 7.86794 23.0483 7.98025 22.8887C9.06797 21.3576 10.1557 19.8236 11.2434 18.2895C12.3311 16.7556 13.4187 15.2216 14.5064 13.6907C14.5103 13.6828 14.5156 13.6749 14.5208 13.667C14.5313 13.6512 14.5418 13.6355 14.5418 13.6197H14.53C14.5182 13.6315 14.5064 13.6434 14.4945 13.6315C13.326 14.3283 12.1529 15.0207 10.9782 15.714C10.2394 16.15 9.49999 16.5865 8.76055 17.0246C8.51227 17.1724 8.26695 17.3173 8.02163 17.4621C7.77631 17.6069 7.53099 17.7517 7.28271 17.8995V17.9113L6.6798 17.5567C6.08866 17.2079 5.50047 16.8591 4.91229 16.5103C4.32412 16.1616 3.73595 15.8128 3.14483 15.4641C2.63054 15.1626 2.11922 14.8611 1.60789 14.5596C1.09656 14.2581 0.585224 13.9567 0.070936 13.6552L0.0709353 13.6552C0.0591124 13.6434 0.0354673 13.6197 0 13.6197C0.00903169 13.6333 0.0163385 13.6434 0.0225792 13.652C0.032677 13.6659 0.0399838 13.676 0.0472906 13.6907C0.141872 13.8266 0.236453 13.9596 0.331035 14.0926C0.425616 14.2256 0.520197 14.3586 0.614778 14.4946C0.975379 15.003 1.33894 15.5143 1.70249 16.0257C2.06603 16.537 2.42957 17.0483 2.79015 17.5567C3.16254 18.0827 3.53789 18.6118 3.91323 19.1408C4.28863 19.6699 4.66402 20.199 5.03645 20.7251C5.40296 21.2394 5.76946 21.7567 6.13596 22.2739C6.50246 22.7912 6.86897 23.3084 7.23547 23.8227C7.24013 23.832 7.24663 23.8395 7.2528 23.8466C7.26227 23.8575 7.27094 23.8675 7.27094 23.8818H7.28276C7.28276 23.8759 7.28571 23.87 7.28867 23.8641Z" fill="#8A4DEB"/>
<path fill-rule="evenodd" clip-rule="evenodd" d="M7.30691 0.141865V0.130042C7.30691 0.126101 7.3056 0.12216 7.30428 0.118219C7.30166 0.110338 7.29903 0.102456 7.30691 0.094574H7.29509C7.29509 0.111884 7.28875 0.122858 7.28072 0.136772C7.27778 0.141865 7.27461 0.147352 7.27144 0.153687C7.05272 0.520189 6.83105 0.886691 6.60937 1.25319C6.3877 1.6197 6.16602 1.9862 5.9473 2.3527C5.64583 2.85517 5.34139 3.35763 5.03696 3.86009C4.73253 4.36255 4.42809 4.86502 4.12662 5.36748C3.8015 5.91131 3.47343 6.45514 3.14536 6.99897C2.81727 7.54283 2.48918 8.08668 2.16405 8.63054C1.85667 9.13891 1.55223 9.64432 1.2478 10.1497C0.943367 10.6552 0.638932 11.1606 0.331541 11.669L0.0123291 12.201L0.0168129 12.2054L0 12.2128V12.2246C0.0236453 12.2364 0.0472906 12.2483 0.0591133 12.2601C1.20001 12.934 2.34387 13.6108 3.48773 14.2877L3.48853 14.2882C4.63209 14.9648 5.77565 15.6415 6.91626 16.3153C7.02264 16.3862 7.12902 16.4453 7.23541 16.5044L7.23547 16.5044L7.24059 16.51C7.25338 16.5242 7.27398 16.5471 7.29458 16.5162C7.27698 16.4986 7.27903 16.4745 7.28123 16.4486L7.28123 16.4486C7.28199 16.4398 7.28276 16.4307 7.28276 16.4217V8.93086C7.28586 8.9321 7.28895 8.93335 7.29205 8.9346C7.28278 8.96888 7.28278 9.01164 7.28278 9.04435V16.3508V16.4572C7.28278 16.469 7.28278 16.5044 7.31824 16.5044C7.33007 16.4926 7.35371 16.4808 7.37736 16.469L12.8394 13.2414L14.5774 12.2128L14.5655 12.201C14.5641 12.2003 14.5627 12.1996 14.5614 12.1988C14.549 12.1628 14.5249 12.1274 14.5049 12.098C14.5013 12.0927 14.4978 12.0876 14.4946 12.0828C12.7591 9.18741 11.0173 6.2983 9.2739 3.40636C8.61848 2.31918 7.96282 1.2316 7.30716 0.143137C7.30708 0.142713 7.307 0.142288 7.30691 0.141865ZM7.29458 8.90987C7.29088 8.91348 7.28692 8.91679 7.28276 8.91991V8.92198C7.30346 8.91429 7.29458 8.91429 7.29458 8.91429V8.90987Z" fill="#8A4DEB"/>
</svg>
