<svg width="21" height="22" viewBox="0 0 21 22" fill="none" xmlns="http://www.w3.org/2000/svg">
<path fill-rule="evenodd" clip-rule="evenodd" d="M1.9945 10.0382H16.5696C16.7523 10.0382 16.9255 10.1107 17.0515 10.2398L19.3573 12.5613C19.7826 12.9897 19.4802 13.7205 18.8754 13.7205H4.3003C4.1176 13.7205 3.94435 13.6481 3.81835 13.5189L1.51255 11.1974C1.08415 10.769 1.3897 10.0382 1.9945 10.0382ZM1.51255 6.96065L3.81835 4.6391C3.9475 4.50995 4.12075 4.4375 4.3003 4.4375H18.8722C19.477 4.4375 19.7826 5.1683 19.3542 5.5967L17.0515 7.91825C16.9224 8.0474 16.7491 8.11985 16.5696 8.11985H1.9945C1.3897 8.11985 1.08415 7.38905 1.51255 6.96065ZM19.3542 16.7981L17.0484 19.1196C16.9192 19.2488 16.746 19.3212 16.5664 19.3212H1.9945C1.3897 19.3212 1.08415 18.5904 1.51255 18.162L3.81835 15.8405C3.9475 15.7113 4.12075 15.6389 4.3003 15.6389H18.8722C19.477 15.6389 19.7826 16.3697 19.3542 16.7981Z" fill="url(#paint0_linear_1554_42883)"/>
<defs>
<linearGradient id="paint0_linear_1554_42883" x1="2.35108" y1="19.9617" x2="18.5156" y2="3.79709" gradientUnits="userSpaceOnUse">
<stop stop-color="#CB4EE8"/>
<stop offset="1" stop-color="#10F4B1"/>
</linearGradient>
</defs>
</svg>
