<svg width="23" height="22" viewBox="0 0 23 22" fill="none" xmlns="http://www.w3.org/2000/svg">
<g clip-path="url(#clip0_421_3738)">
<path d="M7.42098 19.9375C15.7208 19.9375 20.2618 13.0595 20.2618 7.09677C20.2618 6.90341 20.2575 6.70575 20.2489 6.51239C21.1322 5.87357 21.8945 5.08229 22.5 4.17575C21.6773 4.54178 20.8038 4.78083 19.9094 4.88474C20.8512 4.32023 21.5563 3.43341 21.8941 2.38868C21.0082 2.91374 20.0393 3.28412 19.029 3.48395C18.3483 2.76066 17.4482 2.28175 16.468 2.12127C15.4879 1.9608 14.4821 2.12769 13.6063 2.59615C12.7304 3.06461 12.0333 3.80854 11.6227 4.71293C11.2121 5.61732 11.1108 6.63179 11.3346 7.5995C9.54062 7.50948 7.78561 7.04346 6.18332 6.23165C4.58102 5.41985 3.16722 4.28038 2.03355 2.88712C1.45737 3.88053 1.28105 5.05607 1.54044 6.17481C1.79984 7.29355 2.47547 8.27155 3.43004 8.91005C2.71341 8.8873 2.01248 8.69435 1.38516 8.34716V8.40302C1.38451 9.44553 1.74492 10.4561 2.40512 11.2629C3.06531 12.0698 3.98455 12.6231 5.00656 12.8288C4.34272 13.0104 3.64598 13.0369 2.97027 12.9061C3.25867 13.8027 3.81978 14.5869 4.57529 15.1492C5.3308 15.7115 6.24303 16.0239 7.18465 16.0429C5.58606 17.2986 3.61133 17.9797 1.57852 17.9765C1.21801 17.9759 0.857866 17.9538 0.5 17.9103C2.56512 19.2352 4.9674 19.9388 7.42098 19.9375Z" fill="#B2B2B2"/>
</g>
<defs>
<clipPath id="clip0_421_3738">
<rect width="22" height="22" fill="white" transform="translate(0.5)"/>
</clipPath>
</defs>
</svg>
